<?xml version="1.0" standalone="no"?><svg xmlns="http://www.w3.org/2000/svg" viewBox="0 0 1440 320"><path fill="#a2d9ff" fill-opacity="1" d="M0,192L16,176C32,160,64,128,96,112C128,96,160,96,192,122.7C224,149,256,203,288,202.7C320,203,352,149,384,144C416,139,448,181,480,197.3C512,213,544,203,576,202.7C608,203,640,213,672,197.3C704,181,736,139,768,122.7C800,107,832,117,864,144C896,171,928,213,960,245.3C992,277,1024,299,1056,304C1088,309,1120,299,1152,293.3C1184,288,1216,288,1248,240C1280,192,1312,96,1344,85.3C1376,75,1408,149,1424,186.7L1440,224L1440,320L1424,320C1408,320,1376,320,1344,320C1312,320,1280,320,1248,320C1216,320,1184,320,1152,320C1120,320,1088,320,1056,320C1024,320,992,320,960,320C928,320,896,320,864,320C832,320,800,320,768,320C736,320,704,320,672,320C640,320,608,320,576,320C544,320,512,320,480,320C448,320,416,320,384,320C352,320,320,320,288,320C256,320,224,320,192,320C160,320,128,320,96,320C64,320,32,320,16,320L0,320Z"></path></svg>